# Blender v3.6.5 OBJ File: 'cubo_giratorio.blend'
# www.blender.org
mtllib frame_0035.mtl
o Cube_Cube.004
v -0.794739 -0.584821 -0.228960
v -0.794739 0.584821 -0.228960
v 0.228960 -0.584821 -0.794739
v 0.228960 0.584821 -0.794739
v -0.228960 -0.584821 0.794739
v -0.228960 0.584821 0.794739
v 0.794739 -0.584821 0.228960
v 0.794739 0.584821 0.228960
vt 0.375000 0.000000
vt 0.625000 0.000000
vt 0.625000 0.250000
vt 0.375000 0.250000
vt 0.625000 0.500000
vt 0.375000 0.500000
vt 0.625000 0.750000
vt 0.375000 0.750000
vt 0.625000 1.000000
vt 0.375000 1.000000
vt 0.125000 0.500000
vt 0.125000 0.750000
vt 0.875000 0.500000
vt 0.875000 0.750000
vn -0.4837 0.0000 -0.8752
vn 0.8752 0.0000 -0.4837
vn 0.4837 0.0000 0.8752
vn -0.8752 0.0000 0.4837
vn 0.0000 -1.0000 -0.0000
vn 0.0000 1.0000 0.0000
usemtl Material.001
s off
f 1/1/1 2/2/1 4/3/1 3/4/1
f 3/4/2 4/3/2 8/5/2 7/6/2
f 7/6/3 8/5/3 6/7/3 5/8/3
f 5/8/4 6/7/4 2/9/4 1/10/4
f 3/11/5 7/6/5 5/8/5 1/12/5
f 8/5/6 4/13/6 2/14/6 6/7/6
o Cube.001_Cube.005
v -0.178655 3.631780 0.706663
v -0.178655 4.662595 0.706663
v -0.706663 3.631780 -0.178655
v -0.706663 4.662595 -0.178655
v 0.706663 3.631780 0.178655
v 0.706663 4.662595 0.178655
v 0.178655 3.631780 -0.706663
v 0.178655 4.662595 -0.706663
vt 0.375000 0.000000
vt 0.625000 0.000000
vt 0.625000 0.250000
vt 0.375000 0.250000
vt 0.625000 0.500000
vt 0.375000 0.500000
vt 0.625000 0.750000
vt 0.375000 0.750000
vt 0.625000 1.000000
vt 0.375000 1.000000
vt 0.125000 0.500000
vt 0.125000 0.750000
vt 0.875000 0.500000
vt 0.875000 0.750000
vn -0.8589 0.0000 0.5122
vn -0.5122 0.0000 -0.8589
vn 0.8589 0.0000 -0.5122
vn 0.5122 0.0000 0.8589
vn 0.0000 -1.0000 0.0000
vn 0.0000 1.0000 -0.0000
usemtl Material.002
s off
f 9/15/7 10/16/7 12/17/7 11/18/7
f 11/18/8 12/17/8 16/19/8 15/20/8
f 15/20/9 16/19/9 14/21/9 13/22/9
f 13/22/10 14/21/10 10/23/10 9/24/10
f 11/25/11 15/20/11 13/22/11 9/26/11
f 16/19/12 12/27/12 10/28/12 14/21/12
